<svg xmlns="http://www.w3.org/2000/svg" fill="none" viewBox="0 0 816 445" height="445" width="816">
<path fill="white" d="M92.5555 180.474V147.427H123.504V97.6938H161.414V147.427H204.204V180.474H161.414V273.338C161.414 280.299 162.813 285.23 165.594 288.13C168.375 291.031 173.135 292.481 179.857 292.481H208.384V325.528H172.214C155.289 325.528 142.937 321.587 135.174 313.705C127.411 305.823 123.521 293.641 123.521 277.177V180.474H92.5555Z"></path>
<path fill="white" d="M419.822 289.529C427.824 295.449 438.197 298.401 450.959 298.401C462.322 298.401 471.535 296.251 478.615 291.969C485.695 287.687 489.227 281.937 489.227 274.754C489.227 268.732 487.606 264.211 484.365 261.191C481.123 258.171 476.772 256.038 471.313 254.759C465.87 253.479 457.459 252.148 446.096 250.766C430.554 248.907 417.741 246.416 407.658 243.294C397.575 240.171 389.453 235.172 383.311 228.331C377.169 221.489 374.098 212.276 374.098 200.675C374.098 189.773 377.169 180.099 383.311 171.637C389.453 163.175 397.916 156.623 408.698 151.982C419.481 147.342 431.714 145.021 445.397 145.021C467.884 145.021 486.156 150.003 500.18 159.984C514.204 169.948 521.797 183.989 522.957 202.074H486.429C485.508 193.953 481.447 187.299 474.247 182.078C467.065 176.858 458.022 174.247 447.12 174.247C436.218 174.247 427.415 176.329 420.692 180.509C413.97 184.689 410.609 190.37 410.609 197.553C410.609 202.893 412.298 206.885 415.659 209.547C419.02 212.208 423.252 214.068 428.353 215.109C433.454 216.149 441.678 217.378 453.04 218.76C468.344 220.38 481.208 222.871 491.65 226.232C502.091 229.593 510.434 234.934 516.695 242.236C522.957 249.538 526.079 259.45 526.079 271.973C526.079 283.097 522.837 292.907 516.337 301.37C509.837 309.832 500.914 316.332 489.551 320.853C478.188 325.375 465.427 327.644 451.283 327.644C427.397 327.644 408.101 322.252 393.378 311.47C378.654 300.687 371.062 285.793 370.601 266.77H406.771C407.47 276.051 411.821 283.643 419.822 289.546V289.529Z"></path>
<path fill="white" d="M552.694 284.308C545.153 270.506 541.383 254.571 541.383 236.486C541.383 218.401 545.153 202.807 552.694 189.005C560.235 175.202 570.899 164.488 584.701 156.827C598.504 149.167 614.319 145.345 632.182 145.345C650.045 145.345 665.861 149.167 679.663 156.827C693.466 164.488 704.129 175.202 711.67 189.005C719.211 202.807 722.982 218.623 722.982 236.486C722.982 254.349 719.211 270.523 711.67 284.308C704.129 298.111 693.466 308.774 679.663 316.315C665.861 323.856 650.045 327.626 632.182 327.626C614.319 327.626 598.504 323.856 584.701 316.315C570.899 308.774 560.235 298.111 552.694 284.308ZM684.696 236.486C684.696 219.1 679.885 204.889 670.263 193.884C660.64 182.863 647.947 177.369 632.182 177.369C616.418 177.369 603.775 182.88 594.272 193.884C584.769 204.906 580.009 219.1 580.009 236.486C580.009 253.871 584.769 268.083 594.272 279.087C603.775 290.109 616.418 295.603 632.182 295.603C647.947 295.603 660.64 290.092 670.263 279.087C679.885 268.066 684.696 253.871 684.696 236.486Z"></path>
<path fill="white" d="M310.563 71.0952H273.199V372.548H310.563V71.0952Z"></path>
<path fill="white" d="M716.833 411.095V444.15H99.1667V411.095H716.833ZM782.944 344.984V99.4281C782.944 62.916 753.345 33.317 716.833 33.317H99.1667C62.6545 33.317 33.0556 62.916 33.0556 99.4281V344.984C33.0556 381.496 62.6545 411.095 99.1667 411.095V444.15C44.8264 444.15 0.694704 400.443 0.00830078 346.266L0 344.984V99.4281C0 45.0879 43.7073 0.956177 97.8847 0.269775L99.1667 0.261475H716.833L718.115 0.269775C772.293 0.956183 816 45.0879 816 99.4281V344.984C816 399.752 771.602 444.15 716.833 444.15V411.095C753.345 411.095 782.944 381.496 782.944 344.984Z"></path>
</svg>
